<?xml version="1.0" encoding="UTF-8"?>
<svg version="1.1" xmlns="http://www.w3.org/2000/svg" width="512" height="512">
<path d="M0 0 C19.55926713 -0.04685809 39.11852276 -0.08205621 58.67783451 -0.10362434 C67.76090949 -0.11390792 76.84394946 -0.12791202 85.92700195 -0.15087891 C93.84988936 -0.1709026 101.77275139 -0.18373761 109.69566339 -0.18817699 C113.88523054 -0.19076926 118.07472513 -0.19680037 122.26426888 -0.21146011 C126.21966099 -0.22518644 130.1749517 -0.22919275 134.13036537 -0.22621536 C135.5705343 -0.22675888 137.01070716 -0.23064569 138.45085526 -0.23841095 C157.09829631 -0.33389825 174.29977761 1.04594856 188.62109375 14.265625 C195.56641187 22.24874928 200.53514944 31.29941113 205.4375 40.625 C206.09608174 41.8663987 206.75501999 43.10760833 207.41430664 44.34863281 C212.08425104 53.16166499 216.64000692 62.02927942 221 71 C225.41764274 69.65892988 229.6722182 68.18000455 233.87890625 66.27734375 C234.56726563 65.96611572 235.255625 65.6548877 235.96484375 65.33422852 C237.33516155 64.70760158 238.70130403 64.07173964 240.0625 63.42553711 C244.75622884 61.27908562 248.85111022 60.42476906 254 60 C256.36359386 64.44911785 256.09778992 68.22138503 255 73 C253.88304957 75.90898469 252.44549467 78.58897746 250.9375 81.3125 C250.28527466 82.5197876 250.28527466 82.5197876 249.61987305 83.75146484 C243.72626194 94.52460213 237.38048816 105.04381999 231.05810547 115.56884766 C229.07151571 118.87710341 227.09931544 122.19379743 225.12890625 125.51171875 C218.96079563 135.87880037 212.7010643 146.18117274 206.25 156.375 C205.37287354 157.76682495 205.37287354 157.76682495 204.47802734 159.18676758 C203.66132568 160.46716919 203.66132568 160.46716919 202.828125 161.7734375 C202.1151123 162.89371338 202.1151123 162.89371338 201.38769531 164.03662109 C199.99141761 166.01214278 198.90324094 167.50187551 197 169 C194.58546448 169.20458984 194.58546448 169.20458984 191.66625977 168.9609375 C190.00553688 168.83440796 190.00553688 168.83440796 188.31126404 168.70532227 C187.09608597 168.59631592 185.8809079 168.48730957 184.62890625 168.375 C182.66621145 168.21852805 180.70351638 168.06205947 178.74081135 167.90571594 C176.62657362 167.7342509 174.51312901 167.55490609 172.39971924 167.37353516 C167.95535421 166.99314211 163.50900796 166.64104508 159.06201172 166.29296875 C151.27620151 165.68065816 143.49269925 165.04267691 135.7097168 164.39550781 C131.68884091 164.06133784 127.66745598 163.73374353 123.64592648 163.407547 C120.48580188 163.15011616 117.32606465 162.88815088 114.16641426 162.62496948 C112.68323714 162.50215951 111.19992685 162.38094503 109.71647453 162.26150513 C84.4622841 160.22262688 84.4622841 160.22262688 80 156 C79.4375 153.0625 79.4375 153.0625 80 150 C83.78210393 146.45517636 88.13290502 144.13552986 92.6875 141.75 C93.36361328 141.38648438 94.03972656 141.02296875 94.73632812 140.6484375 C99.73948543 138 99.73948543 138 102 138 C96.71506509 125.97726062 91.26157671 114.04919242 85.625 102.1875 C84.49471647 99.80675665 83.36456908 97.42594874 82.23449707 95.04510498 C81.49612103 93.48965893 80.75743839 91.93435838 80.01843262 90.37921143 C78.03009183 86.19039904 76.0654467 81.99225231 74.1328125 77.77734375 C58.18940137 43.15292422 40.1135158 15.82800825 3.4453125 2.25 C2.30835938 1.8375 1.17140625 1.425 0 1 C0 0.67 0 0.34 0 0 Z " fill="#FFFFFF" transform="translate(181,11)"/>
<path d="M0 0 C0.39155273 0.76328613 0.78310547 1.52657227 1.18652344 2.31298828 C10.90704984 21.25494635 10.90704984 21.25494635 21 40 C26.38234897 49.76164467 31.51489689 59.64476563 36.61376953 69.55615234 C40.50815808 77.12547055 44.43761816 84.67321408 48.4753418 92.16723633 C51.28127422 97.40724736 52.22141019 101.02192486 52 107 C51 108 51 108 48.0625 108.375 C39.4620856 108.23458507 31.05718235 101.36944694 24 97 C19.91091748 100.61652346 17.33465932 104.96168336 14.5 109.5625 C13.42333383 111.28916025 12.3465066 113.01572008 11.26953125 114.7421875 C10.72377441 115.62100586 10.17801758 116.49982422 9.61572266 117.40527344 C7.63817682 120.58106026 5.63854923 123.74244995 3.63574219 126.90234375 C-3.96708763 138.89871716 -11.49949676 150.93943856 -19 163 C-19.52258392 163.84026733 -19.52258392 163.84026733 -20.0557251 164.69750977 C-22.21546703 168.17162679 -24.37075338 171.64845822 -26.52111816 175.12838745 C-27.52759317 176.75604902 -28.53669904 178.38208287 -29.54589844 180.00805664 C-37.66009148 192.79326687 -37.66009148 192.79326687 -43.3125 206.75 C-43.61800781 207.77609375 -43.92351562 208.8021875 -44.23828125 209.859375 C-46.19388219 217.9224681 -46.11889663 225.66454767 -46.0625 233.9375 C-46.05798828 235.19369141 -46.05347656 236.44988281 -46.04882812 237.74414062 C-46.03709681 240.82947663 -46.020681 243.91471316 -46 247 C-49.85038154 245.71653949 -50.18498683 244.43922117 -52.15234375 240.953125 C-52.75747803 239.89174316 -53.3626123 238.83036133 -53.98608398 237.73681641 C-54.63005127 236.58616699 -55.27401855 235.43551758 -55.9375 234.25 C-56.61509125 233.05467904 -57.29356761 231.85985941 -57.97290039 230.66552734 C-59.34596132 228.24869076 -60.71418997 225.82922477 -62.078125 223.40722656 C-64.21185062 219.62441727 -66.36662363 215.85413508 -68.52685547 212.08642578 C-69.97197822 209.56483914 -71.41223292 207.04052237 -72.8515625 204.515625 C-75.15272083 200.48083871 -77.46155464 196.45052558 -79.7734375 192.421875 C-88.31816274 177.52477017 -96.74250298 162.56641959 -105.04541016 147.53271484 C-106.77329134 144.40662197 -108.50970027 141.2853308 -110.24789429 138.16496277 C-111.70990006 135.53922973 -113.16869104 132.91171869 -114.62695312 130.28390503 C-115.32311707 129.03086202 -116.0205061 127.77849869 -116.71923828 126.52688599 C-124.54059226 112.51101014 -130.74425447 100.61001877 -127.421875 84.1328125 C-122.03050147 68.00770441 -110.88396431 53.429445 -101.57470703 39.42504883 C-101.05505371 38.62478271 -100.53540039 37.8245166 -100 37 C-99.12577393 35.70195435 -99.12577393 35.70195435 -98.23388672 34.37768555 C-97.8267041 33.59304932 -97.41952148 32.80841309 -97 32 C-98.1874937 28.4375189 -98.95137002 28.13320164 -102.078125 26.2578125 C-103.32529297 25.49404297 -103.32529297 25.49404297 -104.59765625 24.71484375 C-105.47292969 24.19019531 -106.34820312 23.66554687 -107.25 23.125 C-118.464503 16.38284752 -118.464503 16.38284752 -122 12 C-122 8.52901138 -121.84841334 6.18582927 -119.79933167 3.32182312 C-117.25460614 1.45241955 -115.35220129 1.56215601 -112.21069336 1.47583008 C-111.00922165 1.43602524 -109.80774994 1.3962204 -108.56987 1.35520935 C-107.25646133 1.32693558 -105.94305267 1.2986618 -104.58984375 1.26953125 C-103.20450191 1.22999201 -101.81919191 1.18932348 -100.43391418 1.14759827 C-96.70733384 1.03957836 -92.98052438 0.95081046 -89.25334167 0.86647797 C-86.94394551 0.81265023 -84.63476525 0.75321392 -82.32556152 0.69171143 C-54.88311493 -0.03891903 -27.45179757 -0.24817341 0 0 Z " fill="#FFFFFF" transform="translate(129,185)"/>
<path d="M0 0 C2.93434394 0.44015159 3.75571982 1.02022176 5.5 3.375 C6.51973129 6.43419388 6.61533602 8.49918025 6.59765625 11.69921875 C6.59282227 13.24125977 6.59282227 13.24125977 6.58789062 14.81445312 C6.57532227 16.42223633 6.57532227 16.42223633 6.5625 18.0625 C6.55798828 19.14595703 6.55347656 20.22941406 6.54882812 21.34570312 C6.53703743 24.02219085 6.52058063 26.69856777 6.5 29.375 C16.5084704 29.26568522 26.51689364 29.15275661 36.52527618 29.03566074 C41.17650205 28.98134647 45.82773414 28.92811259 50.47900391 28.87768555 C61.99541235 28.75219847 73.51125098 28.60546028 85.02679443 28.41568756 C86.65149886 28.38895899 88.27621398 28.36287196 89.90093994 28.33748627 C94.33618233 28.26738905 98.7706498 28.18268161 103.2051239 28.07407951 C105.12538203 28.0295108 107.04591506 27.9972962 108.96643066 27.9657135 C131.1089696 27.35187577 150.80126336 20.19044507 167.81811523 5.98193359 C172.19546789 2.375 172.19546789 2.375 175.5 2.375 C174.90709399 6.07356497 173.87310149 8.95373993 172.12890625 12.26171875 C171.39945801 13.65414795 171.39945801 13.65414795 170.65527344 15.07470703 C170.1296582 16.06067871 169.60404297 17.04665039 169.0625 18.0625 C168.51754883 19.09487793 167.97259766 20.12725586 167.41113281 21.19091797 C163.04672274 29.42673558 158.54793745 37.58190254 153.98876953 45.7109375 C150.867729 51.29584964 147.7789334 56.89866394 144.6875 62.5 C144.34339081 63.12314087 143.99928162 63.74628174 143.64474487 64.38830566 C138.99038543 72.81899763 134.38143944 81.27262324 129.8125 89.75 C125.03897247 98.60186685 120.15294346 107.38366086 115.17651367 116.12304688 C112.64906142 120.56255161 110.1415441 125.00872853 107.70703125 129.5 C100.0098275 143.69328338 93.25832517 154.95523635 77.40625 160.61328125 C69.78998075 162.60948085 62.16236054 162.50947075 54.34375 162.47265625 C53.20087524 162.4712413 52.05800049 162.46982635 50.88049316 162.46836853 C47.25363475 162.46280025 43.62683955 162.45025362 40 162.4375 C37.5312509 162.4324809 35.06250082 162.42791871 32.59375 162.42382812 C26.56247867 162.41284121 20.53124385 162.39613485 14.5 162.375 C14.51047363 163.23254883 14.52094727 164.09009766 14.53173828 164.97363281 C14.56588296 168.16421513 14.59092959 171.35470412 14.60986328 174.54541016 C14.61990253 175.92467315 14.63353677 177.30391496 14.65087891 178.68310547 C14.67521754 180.6688514 14.68543255 182.6547545 14.6953125 184.640625 C14.70578613 185.83461914 14.71625977 187.02861328 14.72705078 188.25878906 C14.51034762 191.23298164 14.06186122 192.87818379 12.5 195.375 C10.93997572 195.5113128 9.37642824 195.60759126 7.8125 195.6875 C6.50732422 195.77451172 6.50732422 195.77451172 5.17578125 195.86328125 C-0.88827495 194.75670165 -4.41519737 187.98478325 -7.75 183.1875 C-8.25668213 182.46409424 -8.76336426 181.74068848 -9.28540039 180.99536133 C-16.23314318 170.98891588 -22.83149797 160.74623665 -29.45751953 150.52539062 C-31.33170524 147.63458351 -33.20973246 144.7463305 -35.08984375 141.859375 C-38.23142307 137.03439721 -41.36672833 132.20537555 -44.5 127.375 C-45.26231934 126.2005835 -45.26231934 126.2005835 -46.04003906 125.00244141 C-47.527507 122.71048778 -49.01394917 120.41787264 -50.5 118.125 C-50.93296387 117.45782959 -51.36592773 116.79065918 -51.81201172 116.10327148 C-52.63413334 114.83349324 -53.45087654 113.56021357 -54.26171875 112.28320312 C-55.1304679 110.94445246 -56.03211782 109.62675389 -56.95703125 108.32617188 C-57.65892578 107.30620117 -57.65892578 107.30620117 -58.375 106.265625 C-58.80554688 105.66266602 -59.23609375 105.05970703 -59.6796875 104.43847656 C-60.87527966 101.43099294 -60.30375662 99.47369651 -59.5 96.375 C-58.32348633 93.77978516 -58.32348633 93.77978516 -56.83203125 91.1640625 C-56.27588135 90.17929932 -55.71973145 89.19453613 -55.14672852 88.17993164 C-54.54143311 87.1305542 -53.9361377 86.08117676 -53.3125 85 C-52.684646 83.8958374 -52.05679199 82.7916748 -51.40991211 81.65405273 C-46.03482112 72.22836292 -40.5685741 62.85495292 -35.078125 53.49609375 C-31.93434176 48.13168793 -28.83212029 42.74419152 -25.73706055 37.3515625 C-20.65373274 28.4991048 -15.54513826 19.66535477 -10.25 10.9375 C-9.80825439 10.20418457 -9.36650879 9.47086914 -8.91137695 8.71533203 C-3.93541489 0.59031223 -3.93541489 0.59031223 0 0 Z " fill="#FFFFFF" transform="translate(333.5,305.625)"/>
<path d="M0 0 C2.10533903 -0.02047033 4.21115589 -0.00748292 6.3162384 0.03123474 C7.46613754 0.02875229 8.61603668 0.02626984 9.80078125 0.02371216 C13.60583546 0.022793 17.40914675 0.06462644 21.21394348 0.10716248 C23.85141313 0.11581412 26.4888921 0.1219615 29.12637329 0.1257019 C34.65376572 0.13765563 40.18065887 0.17145885 45.70783997 0.22068787 C53.51169572 0.29014732 61.31532845 0.31944165 69.11944234 0.34108841 C75.1718097 0.3593687 81.22412802 0.38897047 87.27644348 0.41966248 C88.57431479 0.42608828 89.87218609 0.43251408 91.20938683 0.4391346 C94.86096307 0.46001133 98.51239382 0.48830493 102.16389465 0.51951599 C103.25740234 0.52534698 104.35091003 0.53117798 105.47755432 0.53718567 C106.46601852 0.54723129 107.45448273 0.55727692 108.47290039 0.56762695 C109.3369559 0.57449807 110.20101141 0.58136919 111.09125042 0.58844852 C113.04597473 0.72825623 113.04597473 0.72825623 114.04597473 1.72825623 C114.14420566 3.35817177 114.17229422 4.99235609 114.17295837 6.62522888 C114.1757782 7.6853418 114.17859802 8.74545471 114.1815033 9.83769226 C114.17846695 11.59723236 114.17846695 11.59723236 114.17536926 13.39231873 C114.17799774 15.23355316 114.17799774 15.23355316 114.18067932 17.11198425 C114.18433757 20.48793901 114.18346437 23.86383284 114.18030024 27.23978424 C114.1777763 30.76540207 114.18011427 34.29101721 114.1816864 37.81663513 C114.183508 43.73835215 114.18110205 49.66005672 114.17634583 55.58177185 C114.17090322 62.43742432 114.17266588 69.29304706 114.17817223 76.14869881 C114.18270364 82.02469704 114.18335377 87.9006863 114.18073356 93.77668571 C114.17917094 97.29059715 114.17897661 100.8044946 114.18227005 104.31840515 C114.18568305 108.23367986 114.18095856 112.148921 114.17536926 116.06419373 C114.17739349 117.23722046 114.17941772 118.41024719 114.1815033 119.61882019 C114.17868347 120.67893311 114.17586365 121.73904602 114.17295837 122.83128357 C114.17239284 124.22170364 114.17239284 124.22170364 114.17181587 125.64021301 C114.04597473 127.72825623 114.04597473 127.72825623 113.04597473 128.72825623 C111.37558877 128.83965791 109.70050886 128.88123061 108.026474 128.89561462 C106.39487587 128.9128508 106.39487587 128.9128508 104.73031616 128.93043518 C102.9242112 128.94153824 102.9242112 128.94153824 101.08161926 128.9528656 C99.82142471 128.96425568 98.56123016 128.97564575 97.2628479 128.98738098 C93.06820297 129.0240235 88.87352752 129.04918432 84.67878723 129.07200623 C83.60754301 129.07792502 83.60754301 129.07792502 82.5146575 129.08396339 C75.77411054 129.12041172 69.03355313 129.15185052 62.29294014 129.17307281 C53.68150763 129.20058614 45.07090438 129.25120507 36.45981705 129.33354712 C30.4010849 129.38950763 24.34257634 129.41833388 18.28359497 129.42754602 C14.66834723 129.43378148 11.05407006 129.45169979 7.43910599 129.49893188 C3.39365611 129.55112669 -0.64994597 129.54712594 -4.69572449 129.5388031 C-5.87955215 129.56239899 -7.06337982 129.58599487 -8.28308105 129.61030579 C-16.75730919 129.52625829 -22.4838886 127.25531852 -28.95402527 121.72825623 C-38.92355682 110.02487867 -40.47142849 96.14182842 -40.32902527 81.16575623 C-40.34062683 79.94179138 -40.35222839 78.71782654 -40.36418152 77.45677185 C-40.27944909 50.92139941 -25.09991996 29.79648811 -10.4427948 8.8837738 C-8.81196942 6.66180517 -8.81196942 6.66180517 -7.56536865 3.63710022 C-4.62081009 0.35707908 -4.16729102 0.2775147 0 0 Z " fill="#FFFFFF" transform="translate(137.9540252685547,337.27174377441406)"/>
<path d="M0 0 C2.52414403 1.1473382 3.34843813 2.43314108 4.84863281 4.75683594 C5.39028076 5.58280273 5.93192871 6.40876953 6.48999023 7.25976562 C7.06595947 8.1637207 7.64192871 9.06767578 8.23535156 9.99902344 C9.14861206 11.4013623 9.14861206 11.4013623 10.08032227 12.83203125 C11.37550533 14.82299293 12.66564726 16.81724156 13.95117188 18.81445312 C15.88442352 21.81439241 17.83399749 24.80296623 19.79003906 27.78808594 C23.5147928 33.474461 27.22091019 39.17277944 30.92285156 44.87402344 C31.66680176 46.01798584 31.66680176 46.01798584 32.42578125 47.18505859 C52.15136598 77.51883917 52.15136598 77.51883917 61.17285156 92.43652344 C61.53137207 93.0251416 61.88989258 93.61375977 62.25927734 94.22021484 C67.826133 103.52571703 68.05876024 113.0238823 66.52832031 123.60058594 C62.38459991 138.30410994 48.39968627 149.32004433 35.92285156 156.87402344 C28.06160046 161.26169847 20.85955622 164.90927773 11.76269531 165.37011719 C11.02365463 165.40906601 10.28461395 165.44801483 9.5231781 165.48814392 C7.88117624 165.573115 6.23906292 165.65595053 4.59686279 165.73699951 C1.79458183 165.88059634 -1.00603782 166.04535533 -3.80712891 166.21044922 C-8.97618386 166.50246695 -14.14281717 166.68937883 -19.31811523 166.82836914 C-21.46289373 166.90093745 -23.60684328 167.00388384 -25.7487793 167.13598633 C-43.11090819 168.17821475 -43.11090819 168.17821475 -47.97756958 164.39776611 C-51.25243527 160.63994472 -53.31914652 156.38657675 -55.24020386 151.81808472 C-56.29685567 149.36368579 -57.63996327 147.16741498 -59.08105469 144.92089844 C-59.93517743 143.4893567 -60.78803372 142.0570586 -61.63964844 140.62402344 C-66.53017064 132.44150711 -71.44706507 124.27518879 -76.38964844 116.12402344 C-76.74840057 115.53230347 -77.10715271 114.9405835 -77.47677612 114.33093262 C-83.23119063 104.84699922 -89.06914119 95.41875004 -94.99243164 86.0390625 C-98.0256003 81.22220958 -101.01630346 76.38056766 -103.94433594 71.49902344 C-104.80841064 70.06429687 -104.80841064 70.06429687 -105.68994141 68.60058594 C-107.03080558 65.96511056 -107.66480403 63.78624715 -108.07714844 60.87402344 C-92.54218233 51.78901258 -76.97575656 42.76092232 -61.38134766 33.77832031 C-58.05100592 31.85895682 -54.72205696 29.9371999 -51.39355469 28.01464844 C-41.1104306 22.07555036 -30.82316449 16.14396606 -20.51464844 10.24902344 C-19.68860107 9.77634033 -18.86255371 9.30365723 -18.01147461 8.81665039 C-16.4614016 7.93146329 -14.90900652 7.0503265 -13.35400391 6.17382812 C-11.76794413 5.26838289 -10.19481094 4.34007444 -8.63232422 3.39453125 C-7.84196777 2.9262793 -7.05161133 2.45802734 -6.23730469 1.97558594 C-5.53355713 1.54842285 -4.82980957 1.12125977 -4.10473633 0.68115234 C-2.07714844 -0.12597656 -2.07714844 -0.12597656 0 0 Z " fill="#FFFFFF" transform="translate(444.0771484375,153.1259765625)"/>
<path d="M0 0 C3.5412654 2.52858775 6.70433735 5.42428181 9.8671875 8.40625 C12.19378708 10.62299947 12.19378708 10.62299947 14.75 12.546875 C31.11576441 26.04733996 41.27689283 48.76763679 50.2265625 67.58984375 C50.65066406 68.44191406 51.07476562 69.29398437 51.51171875 70.171875 C52.7088159 74.22107246 51.75000578 77.53728119 49.89819336 81.26098633 C49.05333374 82.60906372 49.05333374 82.60906372 48.19140625 83.984375 C47.55525391 85.00926025 46.91910156 86.03414551 46.26367188 87.09008789 C45.22436523 88.72965454 45.22436523 88.72965454 44.1640625 90.40234375 C43.4387431 91.56132353 42.71414589 92.72075556 41.99023438 93.88061523 C39.75075029 97.45997027 37.4908771 101.02616036 35.2265625 104.58984375 C34.54480957 105.66427734 33.86305664 106.73871094 33.16064453 107.84570312 C29.20868836 114.06269862 25.22863093 120.26124434 21.23974609 126.45458984 C19.19053014 129.64595915 17.15408231 132.84514723 15.12109375 136.046875 C7.05879467 148.73155888 -1.18665878 161.25370103 -9.7734375 173.58984375 C-12.99599306 172.96294717 -15.19062591 171.84473305 -17.90234375 170.01171875 C-18.75070801 169.44251709 -19.59907227 168.87331543 -20.47314453 168.28686523 C-21.41786621 167.64434814 -22.36258789 167.00183105 -23.3359375 166.33984375 C-24.91178272 165.27855768 -26.4876281 164.21727185 -28.06347656 163.1559906 C-29.89126613 161.92335318 -31.7170297 160.6877583 -33.54248047 159.45166016 C-38.40641934 156.15935613 -43.27964494 152.88088126 -48.15234375 149.6015625 C-89.40351355 121.83125634 -89.40351355 121.83125634 -102.7734375 112.58984375 C-103.40588379 112.15430176 -104.03833008 111.71875977 -104.68994141 111.27001953 C-113.60196125 105.10427251 -113.60196125 105.10427251 -114.7734375 101.58984375 C-113.61328125 99.0078125 -113.61328125 99.0078125 -111.7109375 95.77734375 C-111.35805664 95.17623779 -111.00517578 94.57513184 -110.64160156 93.95581055 C-105.48716788 85.28004174 -99.9754827 76.81802019 -94.52539062 68.32666016 C-91.92206818 64.25987579 -89.34717844 60.17538713 -86.7734375 56.08984375 C-85.29179346 53.74287809 -83.80951119 51.39631645 -82.32714844 49.04980469 C-81.25699623 47.35545308 -80.18736521 45.66077223 -79.11816406 43.96582031 C-75.62644482 38.43444306 -72.11624755 32.91546203 -68.58203125 27.41113281 C-67.35636673 25.49917558 -66.13514465 23.58436455 -64.91796875 21.66699219 C-63.0928068 18.79819727 -61.24811723 15.94287566 -59.3984375 13.08984375 C-58.85203613 12.22375488 -58.30563477 11.35766602 -57.74267578 10.46533203 C-52.4057757 2.31902846 -46.51632315 -2.73681547 -36.8984375 -4.78515625 C-35.85091309 -5.02310913 -35.85091309 -5.02310913 -34.78222656 -5.26586914 C-22.65209016 -7.86899304 -10.78742963 -6.45284427 0 0 Z " fill="#FFFFFF" transform="translate(191.7734375,29.41015625)"/>
</svg>
